<svg id="Layer_1" data-name="Layer 1" xmlns="http://www.w3.org/2000/svg" xmlns:xlink="http://www.w3.org/1999/xlink" viewBox="0 0 400 300"><defs><linearGradient id="linear-gradient" x1="190.9" y1="150.33" x2="199.22" y2="134.35" gradientUnits="userSpaceOnUse"><stop offset="0" stop-color="#aa4200" stop-opacity="0"/><stop offset="0.98" stop-color="#aa003d"/></linearGradient><linearGradient id="linear-gradient-2" x1="119.74" y1="180.27" x2="131.29" y2="164.14" xlink:href="#linear-gradient"/><linearGradient id="linear-gradient-3" x1="64.72" y1="205.79" x2="76.26" y2="189.66" xlink:href="#linear-gradient"/><linearGradient id="linear-gradient-4" x1="156.37" y1="256.71" x2="164" y2="243.63" xlink:href="#linear-gradient"/><linearGradient id="linear-gradient-5" x1="277.44" y1="195.47" x2="286.53" y2="182.77" gradientUnits="userSpaceOnUse"><stop offset="0" stop-color="#fff" stop-opacity="0"/><stop offset="0.98" stop-color="#aa003d"/></linearGradient></defs><title>81-90</title><path d="M29.91,188.24c2.23-1.29,155,90.48,156.42,89.66l163.18-93.52L191.7,94.87Z" fill="#77cc58"/><path d="M218.2,167.42c5.71-3.07,20.07-11.3,25.74-14.44L174.29,113.4l-25.74,13.77C154.52,130.3,209.94,162.3,218.2,167.42Z" opacity="0.32" fill="url(#linear-gradient)"/><path d="M129.85,187.58c5.71-3.07,25.69-15.71,31.36-18.86L121,154.28,95.3,168C101.27,171.17,121.59,182.47,129.85,187.58Z" opacity="0.32" fill="url(#linear-gradient-2)"/><path d="M74.83,213.1c5.71-3.07,25.69-15.71,31.36-18.86L66,179.79,40.27,193.56C46.24,196.69,66.57,208,74.83,213.1Z" opacity="0.32" fill="url(#linear-gradient-3)"/><path d="M170.95,267.68c9.35-5,42.11-25.76,51.4-30.92L156.5,213.1l-42.2,22.57C124.09,240.79,157.41,259.3,170.95,267.68Z" opacity="0.32" fill="url(#linear-gradient-4)"/><path d="M285.58,177.8c-5,3.09-17,8.16-21.73,11,4.84,2.67,13.68,9.61,17,11.65,3.22-1.74,19.14-5.66,23.51-18.16Z" opacity="0.32" fill="url(#linear-gradient-5)"/><path d="M114.3,112.32v51.73s49.72,2.76,49.72,0V112.32" fill="#68e1fd"/><ellipse cx="139.16" cy="163.61" rx="24.86" ry="11.35" fill="#68e1fd"/><ellipse cx="139.16" cy="112.32" rx="24.86" ry="11.35" fill="#3129a3"/><path d="M123.67,121.15l.17.09c1,.33,1.92.63,2.9.88L120,65.47s-1.41-.78-3.46.64L123.46,121Z" fill="#f78b72"/><path d="M131.39,122.91l2.11-53.17s-1.27-1-3.52.09l-1.72,52.64A27.86,27.86,0,0,0,131.39,122.91Z" fill="#f78b72"/><path d="M139.16,123.68,146,68.24l13.84,7.31-5.6,46.57A42.29,42.29,0,0,1,139.16,123.68Z" fill="#fcb749"/><polyline points="167.02 39.98 167.02 119.18 189.82 132.22 215.56 117.02 215.56 37.81" fill="#ff734d"/><polygon points="167.02 39.98 193.47 24.92 215.56 37.81 189.82 53.02 167.02 39.98" fill="#ffb5a4"/><polygon points="189.82 53.02 189.82 132.22 215.56 117.02 215.56 37.81 189.82 53.02" fill="#f78b72"/><polygon points="216.27 54.63 189.82 69.69 189.82 132.41 212.61 145.45 238.35 130.24 238.35 67.52 216.27 54.63" fill="#68e1fd"/><polygon points="189.82 69.69 216.27 54.63 238.35 67.52 212.61 82.73 189.82 69.69" fill="#fff" opacity="0.49"/><polygon points="212.61 82.73 212.61 145.45 238.35 130.24 238.35 67.52 212.61 82.73" opacity="0.2"/><polyline points="212.61 116.6 212.61 145.83 235.41 158.87 261.14 143.66 261.14 114.44" fill="#ffad4a"/><polygon points="212.61 116.6 239.06 101.54 261.14 114.44 235.41 129.64 212.61 116.6" fill="#fd9"/><polygon points="235.41 129.64 235.41 158.87 261.14 143.66 261.14 114.44 235.41 129.64" fill="#ffc36c"/><path d="M128.69,223.27l93.15-53.45a6.52,6.52,0,0,1,6.54,0l49.71,29.08a3.84,3.84,0,0,1,0,6.63l-92.16,53.32a8.61,8.61,0,0,1-8.71-.06l-48.56-28.94A3.84,3.84,0,0,1,128.69,223.27Z" fill="#e75a59"/><path d="M128.69,219.06l93.15-53.45a6.52,6.52,0,0,1,6.54,0l49.71,29.08a3.84,3.84,0,0,1,0,6.63l-92.16,53.32a8.61,8.61,0,0,1-8.71-.06l-48.56-28.94A3.84,3.84,0,0,1,128.69,219.06Z" fill="#ffdddc"/><path d="M219.57,172.29c.51.17,47.57,27.62,47.57,27.62l-78.59,46-47.48-27.41Z" fill="#fff"/><path d="M168.26,241.59a1.21,1.21,0,0,0,.37-1.76,8.9,8.9,0,0,0-2.29-1.73c-.8-.5-1.64-.94-2.46-1.42L157.55,233l-5.19-3a2.69,2.69,0,0,0-2.3-.25,2.72,2.72,0,0,0-1.34,1,1.11,1.11,0,0,0,.51,1.59l9.57,5.54,4.12,2.39,2.39,1.4a2.88,2.88,0,0,0,2.44.24A2.1,2.1,0,0,0,168.26,241.59Z" fill="#e75a59"/><ellipse cx="144.61" cy="227.28" rx="1.66" ry="1.37" fill="#e75a59"/><path d="M298,173.37s.12,6.14-.61,6.52-5.37,6.42-5.69,7.37c-1.07,3.15,4.75,4.54,6.84,3.47s5.59-7,5.83-8.47,2-10.68,2-10.68" fill="#663a12"/><path d="M289.23,168s.12,6.14-.61,6.52-8.31,4.87-8.69,5.79c-1.21,2.93,4.69,4,6.78,3s8.65-4.9,8.9-6.4,2-10.68,2-10.68" fill="#663a12"/><path d="M312.82,108.86s4.4,6.9,3.81,13.09-6.78,55.43-10.76,54.93-6.36.07-8.44-5.14c0,0-6.68,1.52-8.81-3.79,0,0,1.61-46.19,5.41-53.44S312.82,108.86,312.82,108.86Z" fill="#963626"/><path d="M255.85,90.77a21.06,21.06,0,0,1,3.38-.56,18.84,18.84,0,0,0-3.45.35c-1.19.19-1.33-1.67-.14-1.87l.59-.09a1,1,0,0,1,.61-1.58,18.35,18.35,0,0,1,7.74.71,15.58,15.58,0,0,1,.05-2.84.83.83,0,0,1,.19-.44,1,1,0,0,1,1.85.25c.26,1.5.18,3,.44,4.52a5.89,5.89,0,0,0,.2.79q1.73,1.8,3.41,3.64c.79.87-.66,1.9-1.47,1.13a1.1,1.1,0,0,1-.5.41l.14.18a.84.84,0,0,1,.1.84l.13.13c.86.84-.34,2.28-1.2,1.43l-.3-.3a.75.75,0,0,1-1.1-.3,8.81,8.81,0,0,0-2.9-2.89l-.37-.25a11.85,11.85,0,0,0-3.15-.61c-.8.2-1.59.44-2.37.69a.93.93,0,0,1-.73-1.71l-.51.11C255.32,92.82,254.68,91.06,255.85,90.77Z" fill="#ffc388"/><path d="M256.07,88.35a20.7,20.7,0,0,1,3.72-.17c.3,0,.34.49,0,.48a20.7,20.7,0,0,0-3.72.17C255.81,88.87,255.77,88.39,256.07,88.35Z" fill="#663a12"/><path d="M255.9,90.25a25.65,25.65,0,0,1,4-.28c.3,0,.34.48,0,.48a25.64,25.64,0,0,0-4,.28C255.63,90.77,255.6,90.29,255.9,90.25Z" fill="#663a12"/><path d="M261.17,90.87a4.87,4.87,0,0,1,4.3.82c.26.17-.05.53-.31.37a4.35,4.35,0,0,0-3.83-.73A.24.24,0,0,1,261.17,90.87Z" fill="#663a12"/><path d="M260.41,90.76a3.33,3.33,0,0,1,1.79-2.58c.28-.12.44.33.16.45a2.85,2.85,0,0,0-1.49,2.22C260.82,91.15,260.35,91.06,260.41,90.76Z" fill="#663a12"/><path d="M256.58,92a10.12,10.12,0,0,1,3.06-.83c.31,0,.34.44,0,.48a9.71,9.71,0,0,0-2.94.8C256.46,92.56,256.3,92.11,256.58,92Z" fill="#663a12"/><path d="M277,88.3l-2.2,13.43s1.67,5,5.27,5.65,6.29-16.06,6.29-16.06" fill="#fcb749"/><path d="M287.64,81.11a34.56,34.56,0,0,1,8.17,1.73c3.57,1.16,19,23.77,17,26s-11.59,6.77-17.32,5.52S276.38,90.83,277,88.3c1.44-5.81,5.93-5.83,5.93-5.83" fill="#fcb749"/><path d="M277.45,75.14s-1,8.52,2,10,6.43-1.66,7.42-3.51,2-11.22-3.74-10.59S277.45,75.14,277.45,75.14Z" fill="#ffc388"/><path d="M277.27,69.52c2.35-.82,5.08-2.59,9.27.18S292,80.15,287,82l-.95-2.77a2.8,2.8,0,0,0,.58-2,1.62,1.62,0,0,0-1.94-1.51,4.25,4.25,0,0,1-1.24-1.47c-.85-1.68-1.8-.85-3,.64s-3.88,1.94-5.2,1S274.29,70.56,277.27,69.52Z" fill="#663a12"/><path d="M268.39,90.25a101.46,101.46,0,0,1,8.86,7.09l4.33,9.32s-2.54,3.58-7.27,1.06c-3.36-1.79-8.66-8.31-11.2-12.2A9.62,9.62,0,0,1,268.39,90.25Z" fill="#fcb749"/><path d="M300.28,123.16c.06-.64,1.06-.64,1,0l-4.55,48.52c-.06.64-1.06.64-1,0Z" fill="#663a12"/><path d="M284.87,106s5-4.14,5-6-2.59-15.1,1.69-16.15,7.75,9,9,14.89-12.81,16.81-12.81,16.81" fill="#fcb749"/><path d="M266.37,59c-2.9-2.09-7.28-1.77-10.18.31L265.11,160l10.13-.9Z" fill="#963626"/><ellipse cx="270.18" cy="159.56" rx="5.08" ry="2.15" transform="translate(-13.04 24.49) rotate(-5.07)" fill="#963626"/><path d="M275.29,159.72s-1.15-2.46-5.18-1.92-5,2.38-5,2.38l6.16,19.09Z" fill="#ffd8bd"/><path d="M271.3,179.27l1.85-9.08a3.65,3.65,0,0,0-4.62.51Z" fill="#653200"/><path d="M276.12,116.29l-4.52.53s-3.65-.78-4.46.67c-.22.38,3.63.94,3.63.94s-5.54,1.46-5.2,2.55,4,3.2,4.72,3.39S278,119,278,119" fill="#ffc388"/><path d="M273.93,115.88c1.79-2.54,5.52-5,8.56-7.9,4.13-3.42,8.44-7.75,11.76-3.08,3.7,5.19-10.84,14.94-15.07,17.62A13.49,13.49,0,0,1,273.93,115.88Z" fill="#fcb749"/><polyline points="62.49 162.13 62.49 183.35 86.89 184.29 100.96 173.25 100.96 151.83" fill="#68e1fd"/><polyline points="62.49 162.56 62.49 183.78 86.89 184.72 100.96 173.69 100.96 152.26" fill="#0fb7ce" opacity="0.86"/><path d="M101,151.83a37.83,37.83,0,0,0-14-2.55c-12.75,0-23.23,5.64-24.44,12.85l24.6-.22Z" fill="#68e1fd"/><polygon points="87.1 161.91 86.67 181.6 100.95 170.93 100.96 151.83 87.1 161.91" fill="#68e1fd"/><path d="M91,194.87v5.51a31.9,31.9,0,0,0,12-3.67c5.3-3.14,6.5-5.88,6.82-8.41.05-.41.08-6.7.08-6.7" fill="#c90180"/><path d="M86.67,181.6l14.28-10.67s8.47,2.89,9,10.67S98.73,194.2,91,194.87Z" fill="#f0008d"/><polygon points="87.1 162.34 86.67 182.03 100.95 171.36 100.96 152.26 87.1 162.34" fill="#0fb7ce" opacity="0.65"/><path d="M91.43,184.43v15.93a37.66,37.66,0,0,1-19.91-2.94c-7.09-3.25-8.37-7.13-9-10V170.54" fill="#edaf24"/><path d="M62.5,170.54H86.88l4.55,13.89s-12.64,1.68-22-4C61.32,175.47,62.5,170.54,62.5,170.54Z" fill="#ffcb44"/><path d="M157,217.18l33.68,19.18a1.13,1.13,0,0,0,1.14-1.94l-33.68-19.18a1.13,1.13,0,0,0-1.14,1.94Z" fill="#e6e6e6"/><path d="M163.18,214.07l33.68,19.18A1.13,1.13,0,0,0,198,231.3l-33.68-19.18a1.13,1.13,0,0,0-1.14,1.94Z" fill="#e6e6e6"/><path d="M169.24,210.44l33.68,19.18a1.13,1.13,0,0,0,1.14-1.94L170.38,208.5a1.13,1.13,0,0,0-1.14,1.94Z" fill="#e6e6e6"/><path d="M204.29,187.94,238,207.11a1.13,1.13,0,0,0,1.14-1.94L205.43,186a1.13,1.13,0,0,0-1.14,1.94Z" fill="#e6e6e6"/><path d="M211.43,185l33.68,19.18a1.13,1.13,0,0,0,1.14-1.94l-33.68-19.18a1.13,1.13,0,0,0-1.14,1.94Z" fill="#e6e6e6"/><path d="M217,181.23l33.68,19.18a1.13,1.13,0,0,0,1.14-1.94l-33.68-19.18a1.13,1.13,0,0,0-1.14,1.94Z" fill="#e6e6e6"/><path d="M179.78,203.32c.53.26,32.11,18.57,32.11,18.57l16.52-9.82-31.47-18.45Z" fill="#e6e6e6" stroke="#e6e6e6" stroke-miterlimit="10" stroke-width="0.75"/></svg>